<?xml version="1.0" encoding="UTF-8" standalone="no"?>
<svg
   xmlns:dc="http://purl.org/dc/elements/1.1/"
   xmlns:cc="http://creativecommons.org/ns#"
   xmlns:rdf="http://www.w3.org/1999/02/22-rdf-syntax-ns#"
   xmlns:svg="http://www.w3.org/2000/svg"
   xmlns="http://www.w3.org/2000/svg"
   xmlns:sodipodi="http://sodipodi.sourceforge.net/DTD/sodipodi-0.dtd"
   xmlns:inkscape="http://www.inkscape.org/namespaces/inkscape"
   id="svg8"
   version="1.1"
   viewBox="0 0 297 210"
   height="210mm"
   width="297mm"
   sodipodi:docname="melo.svg"
   inkscape:version="0.92.1 r15371">
  <sodipodi:namedview
     pagecolor="#ffffff"
     bordercolor="#666666"
     borderopacity="1"
     objecttolerance="10"
     gridtolerance="10"
     guidetolerance="10"
     inkscape:pageopacity="0"
     inkscape:pageshadow="2"
     inkscape:window-width="1676"
     inkscape:window-height="823"
     id="namedview3995"
     showgrid="false"
     inkscape:zoom="0.81890663"
     inkscape:cx="761.91092"
     inkscape:cy="268.20913"
     inkscape:window-x="0"
     inkscape:window-y="72"
     inkscape:window-maximized="0"
     inkscape:current-layer="layer1" />
  <defs
     id="defs2" />
  <metadata
     id="metadata5">
    <rdf:RDF>
      <cc:Work
         rdf:about="">
        <dc:format>image/svg+xml</dc:format>
        <dc:type
           rdf:resource="http://purl.org/dc/dcmitype/StillImage" />
        <dc:title></dc:title>
      </cc:Work>
    </rdf:RDF>
  </metadata>
  <g
     transform="translate(0,-87)"
     id="layer1">
    <path
       id="path3713"
       d="m 99.283986,198.16569 c 0,0 -9.552473,-4.92043 -16.57166,-3.02381 -7.133452,1.9275 -12.739159,5.79796 -12.473214,12.66221 0.316766,8.17595 9.055156,12.41569 15.686013,13.60714 13.548198,2.43436 25.702375,-8.50447 25.702375,-8.50447 l -14.605802,-54.7908 c 0,0 13.268142,7.51646 20.221722,6.61457 6.40675,-0.83096 17.76496,-7.74851 17.76496,-7.74851 0,0 -4.32589,-7.80677 -2.64584,-14.55212 0,0 -11.03585,6.42332 -17.19799,6.9926 -8.1318,0.75124 -14.54965,-6.45149 -22.678567,-5.66967 -4.413588,0.42449 -9.071428,6.42562 -9.071428,6.42562 z"
       style="fill:#000000;stroke:#000000;stroke-width:0.26458332px;stroke-linecap:butt;stroke-linejoin:miter;stroke-opacity:1" />
    <flowRoot
       style="fill:black;fill-opacity:1;stroke:none;font-family:sans-serif;font-style:normal;font-weight:normal;font-size:40px;line-height:1.25;letter-spacing:0px;word-spacing:0px"
       id="flowRoot55"
       xml:space="preserve"><flowRegion
         id="flowRegion57"><rect
           y="597.7312"
           x="509.11688"
           height="157.5838"
           width="353.55338"
           id="rect59" /></flowRegion><flowPara
         id="flowPara61" /></flowRoot>    <text
       id="text65"
       y="175.12509"
       x="95.147949"
       style="font-style:normal;font-weight:normal;font-size:10.58333302px;line-height:1.25;font-family:sans-serif;letter-spacing:0px;word-spacing:0px;fill:#000000;fill-opacity:1;stroke:none;stroke-width:0.26458332"
       xml:space="preserve"><tspan
         style="stroke-width:0.26458332"
         y="184.78059"
         x="95.147949"
         id="tspan63" /></text>
    <g
       aria-label="Melo"
       transform="matrix(0.26458333,0,0,0.26458333,22.488244,75.809618)"
       style="font-style:normal;font-variant:normal;font-weight:normal;font-stretch:normal;font-size:200px;line-height:1.25;font-family:Designosaur;-inkscape-font-specification:Designosaur;letter-spacing:0px;word-spacing:0px;fill:#000000;fill-opacity:1;stroke:none"
       id="flowRoot75">
      <path
         d="m 516.6543,508.07031 c 2.8,0 4,-1.2 4,-4 v -136 c 0,-2.8 -1.2,-4 -4,-4 h -16.2 c -2.8,0 -4.6,1 -6,3.6 l -47.6,109 -45,-109.2 c -1.4,-2.4 -3.2,-3.4 -6,-3.4 h -18.2 c -2.8,0 -4,1.2 -4,4 v 136 c 0,2.8 1.2,4 4,4 h 13.2 c 2.8,0 4,-1.2 4,-4 v -56 l -2,-40.2 h 0.4 l 38.6,96.8 c 1.4,2.4 3.2,3.4 6,3.4 h 13 c 2.8,0 4.6,-1 5.8,-3.6 l 40.4,-96.6 h 0.4 l -2,40.2 v 56 c 0,2.8 1.2,4 4,4 z"
         style=""
         id="path3997" />
      <path
         d="m 617.2418,489.07031 c -0.6,-0.8 -1.2,-1.6 -5.2,-0.4 -8.2,2.6 -15.8,5 -23.6,5 -17.6,0 -23.6,-12.4 -25.2,-29.2 h 41 c 16.6,0 21.8,-4.6 21.8,-20 0,-29 -18.6,-43 -42.8,-43 -32.4,0 -44.4,24.8 -44.4,55.6 0,28 10,53.4 47,53.4 17,0 31.6,-5.4 35.4,-9.8 1.6,-1.8 1.4,-3.4 0.2,-5.2 z m -54,-41.4 c 1.2,-15.8 6.4,-29.4 21,-29.4 10.6,0 17.6,10.8 17.6,22.6 0,6 -1.6,6.8 -7.8,6.8 z"
         style=""
         id="path3999" />
      <path
         d="m 674.9668,508.07031 c 2.8,0 4,-1.2 4,-4 v -8.8 c 0,-2.8 -1.2,-4 -4,-4 h -1.4 c -2.6,0 -5.6,-4.6 -5.6,-15.8 v -111.4 c 0,-2.8 -1.2,-4 -4,-4 h -16 c -2.8,0 -4,1.2 -4,4 v 112.8 c 0,21 9.6,31.2 27.6,31.2 z"
         style=""
         id="path4001" />
      <path
         d="m 735.6793,510.47031 c 38.4,0 48.4,-24.6 48.4,-54.4 0,-29.6 -10,-54.6 -48.4,-54.6 -38.4,0 -48.4,25 -48.4,54.8 0,29.8 10,54.2 48.4,54.2 z m 0,-18 c -20,0 -24.4,-16.4 -24.4,-36.4 0,-19.8 4.4,-36.6 24.4,-36.6 20,0 24.4,16.8 24.4,36.6 0,20 -4.4,36.4 -24.4,36.4 z"
         style=""
         id="path4003" />
    </g>
  </g>
</svg>
